<?xml version="1.0" encoding="UTF-8" standalone="no"?>
<svg
   xmlns:dc="http://purl.org/dc/elements/1.1/"
   xmlns:cc="http://creativecommons.org/ns#"
   xmlns:rdf="http://www.w3.org/1999/02/22-rdf-syntax-ns#"
   xmlns:svg="http://www.w3.org/2000/svg"
   xmlns="http://www.w3.org/2000/svg"
   xmlns:sodipodi="http://sodipodi.sourceforge.net/DTD/sodipodi-0.dtd"
   xmlns:inkscape="http://www.inkscape.org/namespaces/inkscape"
   width="24"
   height="24"
   viewBox="0 0 24 24"
   preserveAspectRatio="xMinYMid meet"
   overflow="visible"
   version="1.1"
   id="svg31"
   sodipodi:docname="icon.svg"
   inkscape:version="0.92.5 (2060ec1f9f, 2020-04-08)"
   inkscape:export-filename="/home/laurentd/websites/htdocs/ltifun/lib/editor/atto/plugins/lti/pix/icon.png"
   inkscape:export-xdpi="96"
   inkscape:export-ydpi="96">
  <metadata
     id="metadata37">
    <rdf:RDF>
      <cc:Work
         rdf:about="">
        <dc:format>image/svg+xml</dc:format>
        <dc:type
           rdf:resource="http://purl.org/dc/dcmitype/StillImage" />
      </cc:Work>
    </rdf:RDF>
  </metadata>
  <defs
     id="defs35">
    <filter
       style="color-interpolation-filters:sRGB;"
       inkscape:label="Colorize"
       id="filter1062">
      <feComposite
         in2="SourceGraphic"
         operator="arithmetic"
         k1="0"
         k2="1"
         result="composite1"
         id="feComposite1048" />
      <feColorMatrix
         in="composite1"
         values="0"
         type="saturate"
         result="colormatrix1"
         id="feColorMatrix1050" />
      <feFlood
         flood-opacity="0.466667"
         flood-color="rgb(158,158,158)"
         result="flood1"
         id="feFlood1052" />
      <feBlend
         in="flood1"
         in2="colormatrix1"
         mode="multiply"
         result="blend1"
         id="feBlend1054" />
      <feBlend
         in2="blend1"
         mode="screen"
         result="blend2"
         id="feBlend1056" />
      <feColorMatrix
         in="blend2"
         values="1"
         type="saturate"
         result="colormatrix2"
         id="feColorMatrix1058" />
      <feComposite
         in="colormatrix2"
         in2="SourceGraphic"
         operator="in"
         k2="1"
         result="composite2"
         id="feComposite1060" />
    </filter>
    <filter
       style="color-interpolation-filters:sRGB;"
       inkscape:label="Colorize"
       id="filter1078">
      <feComposite
         in2="SourceGraphic"
         operator="arithmetic"
         k1="0"
         k2="1"
         result="composite1"
         id="feComposite1064" />
      <feColorMatrix
         in="composite1"
         values="0"
         type="saturate"
         result="colormatrix1"
         id="feColorMatrix1066" />
      <feFlood
         flood-opacity="0.466667"
         flood-color="rgb(158,158,158)"
         result="flood1"
         id="feFlood1068" />
      <feBlend
         in="flood1"
         in2="colormatrix1"
         mode="multiply"
         result="blend1"
         id="feBlend1070" />
      <feBlend
         in2="blend1"
         mode="screen"
         result="blend2"
         id="feBlend1072" />
      <feColorMatrix
         in="blend2"
         values="1"
         type="saturate"
         result="colormatrix2"
         id="feColorMatrix1074" />
      <feComposite
         in="colormatrix2"
         in2="SourceGraphic"
         operator="in"
         k2="1"
         result="composite2"
         id="feComposite1076" />
    </filter>
    <filter
       style="color-interpolation-filters:sRGB;"
       inkscape:label="Colorize"
       id="filter1094">
      <feComposite
         in2="SourceGraphic"
         operator="arithmetic"
         k1="0"
         k2="1"
         result="composite1"
         id="feComposite1080" />
      <feColorMatrix
         in="composite1"
         values="0"
         type="saturate"
         result="colormatrix1"
         id="feColorMatrix1082" />
      <feFlood
         flood-opacity="0.466667"
         flood-color="rgb(158,158,158)"
         result="flood1"
         id="feFlood1084" />
      <feBlend
         in="flood1"
         in2="colormatrix1"
         mode="multiply"
         result="blend1"
         id="feBlend1086" />
      <feBlend
         in2="blend1"
         mode="screen"
         result="blend2"
         id="feBlend1088" />
      <feColorMatrix
         in="blend2"
         values="1"
         type="saturate"
         result="colormatrix2"
         id="feColorMatrix1090" />
      <feComposite
         in="colormatrix2"
         in2="SourceGraphic"
         operator="in"
         k2="1"
         result="composite2"
         id="feComposite1092" />
    </filter>
  </defs>
  <sodipodi:namedview
     pagecolor="#ffffff"
     bordercolor="#666666"
     borderopacity="1"
     objecttolerance="10"
     gridtolerance="10"
     guidetolerance="10"
     inkscape:pageopacity="0"
     inkscape:pageshadow="2"
     inkscape:window-width="3840"
     inkscape:window-height="2096"
     id="namedview33"
     showgrid="false"
     inkscape:zoom="9.8333333"
     inkscape:cx="12"
     inkscape:cy="12"
     inkscape:window-x="0"
     inkscape:window-y="27"
     inkscape:window-maximized="1"
     inkscape:current-layer="svg31" />
  <linearGradient
     id="a"
     gradientUnits="userSpaceOnUse"
     x1="11.999"
     x2="11.999"
     y2="24.001">
    <stop
       offset="0"
       stop-color="#90C50E"
       id="stop2" />
    <stop
       offset="1"
       stop-color="#70A034"
       id="stop4" />
  </linearGradient>
  <path
     d="M21.1 12.3c1 0 1.7.9 1.7.9.3.4.7.8.9.8s.3-.5.3-1V8c0-.5-.5-1-1-1h-3c-.5 0-1-.1-1-.3 0-.2.3-.7.7-1.1 0 0 .8-.9.8-2.1C20.5 1.6 18.9 0 17 0s-3.5 1.6-3.5 3.5c0 1.2.8 2.1.8 2.1.4.4.7.9.7 1.1 0 .2-.5.3-1 .3H8c-.5 0-1 .5-1 1v6c0 .5-.1 1-.3 1s-.7-.3-1.1-.7c0 0-.9-.8-2.1-.8C1.6 13.5 0 15.1 0 17s1.6 3.5 3.5 3.5c1.2 0 2.1-.8 2.1-.8.4-.4.9-.7 1.1-.7s.3.5.3 1v3c0 .5.5 1 1 1h4c.5 0 1-.1 1-.3s-.3-.6-.7-1c0 0-.6-.6-.6-1.6 0-1.4 1.3-2.5 2.7-2.5 1.4 0 2.4 1.1 2.4 2.5 0 1-.9 1.7-.9 1.7-.4.3-.8.7-.8.9s.5.3 1 .3h7c.5 0 1-.5 1-1v-6c0-.5-.1-1-.3-1s-.6.3-1 .7c0 0-.6.6-1.6.6-1.4 0-2.5-1.3-2.5-2.7s1-2.3 2.4-2.3z"
     fill="url(#a)"
     id="path7"
     style="filter:url(#filter1094)" />
  <linearGradient
     id="b"
     gradientUnits="userSpaceOnUse"
     x1="11.999"
     y1="1"
     x2="11.999"
     y2="23.001">
    <stop
       offset="0"
       stop-color="#D9F991"
       id="stop9" />
    <stop
       offset=".239"
       stop-color="#D7F88D"
       id="stop11" />
    <stop
       offset=".45"
       stop-color="#D1F383"
       id="stop13" />
    <stop
       offset=".651"
       stop-color="#C6EC71"
       id="stop15" />
    <stop
       offset=".844"
       stop-color="#B7E257"
       id="stop17" />
    <stop
       offset="1"
       stop-color="#A8D73D"
       id="stop19" />
  </linearGradient>
  <path
     d="M17 23c.4-.4.7-1.1.7-1.9 0-2-1.5-3.5-3.4-3.5-2 0-3.7 1.6-3.7 3.5 0 .9.3 1.5.6 1.9H8v-3c0-1.5-.7-2-1.3-2-.6 0-1.3.6-1.7.9 0 0-.7.6-1.5.6C2.1 19.5 1 18.4 1 17s1.1-2.5 2.5-2.5c.8 0 1.4.6 1.5.6.3.3 1.1.9 1.7.9.6 0 1.3-.5 1.3-2V8h6c1.5 0 2-.7 2-1.3 0-.6-.5-1.3-.9-1.7 0 0-.6-.7-.6-1.5C14.5 2.1 15.6 1 17 1s2.5 1.1 2.5 2.5c0 .8-.6 1.5-.6 1.5-.4.4-.9 1.1-.9 1.7 0 .6.5 1.3 2 1.3h3v4c-.4-.4-1.1-.7-1.9-.7-2 0-3.5 1.5-3.5 3.4 0 2 1.6 3.7 3.5 3.7.9 0 1.5-.3 1.9-.6V23h-6z"
     fill="url(#b)"
     id="path22"
     style="filter:url(#filter1078)" />
  <linearGradient
     id="c"
     gradientUnits="userSpaceOnUse"
     x1="11.999"
     y1="2"
     x2="11.999"
     y2="22.001">
    <stop
       offset="0"
       stop-color="#B3E810"
       id="stop24" />
    <stop
       offset="1"
       stop-color="#90C60D"
       id="stop26" />
  </linearGradient>
  <path
     d="M18.6 22c.1-.3.1-.6.1-.9 0-2.5-1.9-4.5-4.4-4.5-2.5 0-4.7 2.1-4.7 4.5 0 .3 0 .6.1.9H9v-2c0-2.1-1.2-3-2.3-3 1.1 0 2.3-.9 2.3-3V9h5c2.1 0 3-1.2 3-2.3 0-.7-.4-1.5-1.2-2.4-.1-.1-.3-.5-.3-.8 0-.8.7-1.5 1.5-1.5s1.5.7 1.5 1.5c0 .3-.3.7-.3.8-.8.9-1.2 1.7-1.2 2.4 0 1.1.9 2.3 3 2.3h2v1.4c-.3-.1-.6-.1-.9-.1-2.5 0-4.5 1.9-4.5 4.4 0 2.5 2.1 4.7 4.5 4.7.3 0 .6 0 .9-.1V22h-3.4zM3.5 18.5c-.8 0-1.5-.7-1.5-1.5s.7-1.5 1.5-1.5c.3 0 .7.3.8.3.9.8 1.7 1.2 2.4 1.2-.7 0-1.5.4-2.4 1.2-.1.1-.5.3-.8.3z"
     fill="url(#c)"
     id="path29"
     style="filter:url(#filter1062)" />
</svg>
